<?xml version="1.0" standalone="no"?>
<!DOCTYPE svg PUBLIC "-//W3C//DTD SVG 20010904//EN"
 "http://www.w3.org/TR/2001/REC-SVG-20010904/DTD/svg10.dtd">
<svg version="1.0" xmlns="http://www.w3.org/2000/svg"
 width="1179.000000pt" height="1280.000000pt" viewBox="0 0 1179.000000 1280.000000"
 preserveAspectRatio="xMidYMid meet">

<g transform="translate(0.000000,1280.000000) scale(0.100000,-0.100000)"
fill="#000000" stroke="none">
<path d="M2260 10740 c0 -5 9 -14 21 -20 19 -11 20 -10 9 9 -11 22 -30 29 -30
11z"/>
<path d="M5530 8718 c-30 -5 -98 -13 -150 -19 -206 -21 -236 -26 -275 -36 -22
-7 -67 -17 -100 -23 -33 -6 -73 -16 -90 -21 -16 -6 -39 -12 -50 -13 -40 -7
-121 -29 -152 -42 -17 -8 -40 -14 -51 -14 -12 0 -24 -4 -27 -10 -3 -5 -19 -10
-34 -10 -16 0 -34 -7 -41 -15 -7 -8 -23 -15 -36 -15 -12 0 -26 -4 -29 -10 -3
-5 -17 -10 -29 -10 -13 0 -29 -7 -36 -15 -7 -8 -21 -15 -31 -15 -10 0 -39 -11
-65 -25 -26 -14 -55 -25 -65 -25 -9 0 -19 -3 -21 -7 -3 -7 -24 -19 -118 -62
-19 -9 -36 -19 -38 -23 -2 -5 -12 -8 -22 -8 -9 0 -23 -7 -30 -15 -7 -8 -21
-15 -31 -15 -11 0 -19 -7 -19 -16 0 -10 -6 -14 -14 -11 -8 3 -20 -1 -26 -9 -7
-8 -19 -14 -26 -14 -8 0 -14 -4 -14 -10 0 -5 -11 -12 -25 -16 -14 -3 -25 -9
-25 -13 0 -3 -18 -15 -40 -25 -22 -11 -40 -26 -40 -34 0 -8 -6 -12 -14 -9 -8
3 -17 -1 -20 -9 -3 -8 -15 -14 -26 -14 -11 0 -20 -7 -20 -15 0 -8 -6 -15 -12
-15 -11 0 -29 -13 -85 -60 -7 -5 -15 -10 -19 -10 -4 0 -18 -12 -32 -27 -14
-16 -26 -26 -27 -23 -1 5 -29 -19 -96 -82 -17 -16 -32 -28 -35 -28 -6 0 -75
-62 -134 -121 -88 -89 -240 -250 -240 -255 0 -3 -11 -15 -25 -28 -14 -13 -25
-28 -25 -34 0 -5 -7 -12 -15 -16 -8 -3 -15 -13 -15 -21 0 -9 -4 -13 -10 -10
-5 3 -10 -3 -10 -13 0 -11 -7 -22 -15 -26 -8 -3 -15 -12 -15 -21 0 -8 -4 -15
-10 -15 -5 0 -10 -7 -10 -15 0 -8 -7 -15 -15 -15 -8 0 -15 -9 -15 -19 0 -10
-7 -21 -15 -25 -8 -3 -15 -13 -15 -21 0 -9 -4 -13 -10 -10 -5 3 -10 -3 -10
-13 0 -11 -7 -25 -15 -32 -8 -7 -15 -19 -15 -26 0 -8 -4 -14 -10 -14 -5 0 -10
-7 -10 -15 0 -9 -7 -18 -15 -21 -8 -4 -15 -12 -15 -18 0 -22 -25 -66 -37 -66
-7 0 -13 -11 -13 -24 0 -14 -4 -28 -10 -31 -5 -3 -10 -15 -10 -26 0 -10 -7
-19 -15 -19 -9 0 -15 -9 -15 -21 0 -11 -7 -27 -15 -35 -8 -9 -15 -24 -15 -35
0 -10 -4 -19 -10 -19 -5 0 -10 -11 -10 -25 0 -14 -4 -25 -9 -25 -5 0 -12 -13
-16 -30 -4 -16 -11 -32 -16 -35 -5 -4 -9 -17 -9 -31 0 -13 -4 -24 -9 -24 -5 0
-12 -13 -16 -30 -4 -16 -11 -32 -16 -35 -5 -4 -9 -19 -9 -36 0 -16 -4 -29 -9
-29 -5 0 -11 -18 -15 -40 -3 -22 -11 -40 -16 -40 -6 0 -10 -18 -10 -40 0 -22
-4 -40 -10 -40 -5 0 -10 -15 -10 -33 0 -18 -7 -42 -15 -53 -15 -20 -19 -52 -9
-77 4 -11 13 -12 47 -5 166 37 210 42 382 42 108 1 202 -4 235 -11 30 -7 89
-20 130 -28 41 -9 84 -19 95 -24 11 -5 47 -17 80 -27 115 -36 403 -193 445
-244 3 -3 25 -21 50 -40 145 -112 331 -345 435 -545 14 -27 45 -32 45 -7 0 11
7 25 15 32 8 7 15 16 15 21 0 9 49 89 61 99 3 3 9 12 13 20 19 40 27 51 131
179 52 64 239 238 273 254 12 6 22 14 22 19 0 4 9 8 20 8 11 0 20 6 20 13 0 7
19 21 41 32 67 32 79 39 79 47 0 5 8 8 19 8 10 0 24 7 31 15 7 8 19 15 26 15
15 0 24 4 82 35 18 9 36 14 39 11 4 -3 12 -1 19 5 7 5 24 12 39 15 15 3 33 6
39 7 6 1 14 5 17 10 3 4 21 9 39 12 18 2 45 8 59 14 49 18 147 25 346 24 182
0 308 -13 365 -35 8 -4 42 -14 75 -23 33 -9 69 -21 80 -25 45 -19 212 -102
245 -122 50 -31 169 -127 209 -168 50 -53 141 -168 141 -179 0 -5 7 -16 15
-25 21 -21 87 -168 109 -241 10 -33 22 -75 28 -93 13 -43 12 -361 -1 -432 -17
-94 -31 -154 -41 -172 -6 -10 -10 -25 -10 -34 0 -9 -7 -32 -16 -52 -9 -21 -22
-52 -30 -70 -8 -18 -14 -39 -14 -47 0 -7 -3 -15 -7 -17 -5 -1 -16 -20 -25 -40
-10 -21 -26 -55 -35 -75 -10 -21 -21 -40 -24 -43 -4 -3 -9 -15 -13 -27 -4 -13
-12 -23 -17 -23 -5 0 -9 -4 -9 -10 0 -9 -70 -129 -90 -153 -5 -7 -38 -50 -72
-97 -34 -47 -67 -90 -73 -96 -5 -6 -37 -42 -70 -80 -145 -168 -440 -453 -605
-583 -36 -28 -79 -64 -96 -79 -17 -15 -44 -36 -59 -47 -29 -20 -86 -65 -95
-75 -3 -3 -25 -19 -49 -35 -24 -17 -56 -39 -71 -50 -99 -72 -118 -82 -133 -74
-16 9 -35 -6 -23 -18 13 -14 -296 -218 -554 -366 -103 -59 -140 -84 -140 -96
0 -14 178 -75 270 -92 25 -4 65 -13 90 -19 81 -19 203 -41 290 -51 47 -5 117
-14 155 -19 82 -12 666 -17 683 -6 11 6 126 19 295 32 37 3 67 10 67 15 0 5
22 9 49 9 28 0 52 4 56 9 3 5 30 13 60 16 30 4 55 11 55 16 0 5 15 9 34 9 19
0 38 5 41 10 3 6 24 10 46 10 21 0 39 5 39 10 0 6 13 10 29 10 16 0 36 7 45
15 8 8 26 15 40 15 14 0 28 5 31 10 3 6 17 10 31 10 24 0 30 2 92 33 19 9 42
17 52 17 10 0 22 5 25 10 3 6 17 10 31 10 13 0 24 5 24 10 0 6 4 10 10 10 5 0
35 12 67 26 32 14 69 31 83 36 14 6 32 14 40 19 8 5 40 21 70 37 66 34 103 55
110 62 3 3 19 12 35 20 17 8 41 24 55 35 14 11 44 29 65 40 22 11 45 25 52 32
7 6 29 21 50 34 21 13 40 25 43 28 3 4 48 38 100 78 52 40 107 84 122 98 15
14 32 25 38 25 5 0 10 7 10 15 0 8 6 15 13 15 14 0 297 283 297 297 0 6 11 16
25 23 14 7 25 17 25 22 0 11 6 18 64 83 25 28 51 61 58 75 7 14 16 27 19 30
15 11 99 131 99 140 0 6 5 10 10 10 6 0 10 6 10 14 0 8 6 21 13 28 19 21 47
66 47 78 0 6 6 18 13 25 30 35 37 45 37 58 0 8 7 20 15 27 8 7 15 20 15 30 0
10 7 20 15 24 8 3 15 16 15 30 0 13 3 26 8 28 8 4 38 63 47 96 3 12 11 22 16
22 5 0 9 14 9 31 0 16 4 28 9 25 5 -4 13 8 16 26 4 18 14 42 21 53 8 11 14 30
14 42 0 13 5 23 10 23 6 0 10 10 10 23 0 12 7 35 15 51 8 15 15 43 15 61 0 18
6 38 14 44 7 6 16 34 20 61 4 28 11 50 16 50 6 0 10 21 10 48 1 26 7 58 15 72
8 14 15 43 15 65 0 56 11 115 20 110 9 -6 18 141 26 435 7 274 -13 479 -74
735 -6 22 -15 60 -20 85 -18 79 -38 142 -63 205 -4 11 -15 40 -23 65 -8 25
-20 59 -26 75 -7 17 -16 39 -20 50 -37 102 -207 432 -246 476 -8 8 -14 19 -14
24 0 4 -11 23 -25 41 -14 18 -25 37 -25 42 0 5 -7 15 -16 23 -8 7 -30 35 -49
63 -19 28 -42 60 -52 71 -10 11 -32 38 -48 60 -16 22 -36 47 -45 56 -8 8 -55
60 -105 114 -84 91 -350 341 -401 375 -12 8 -55 40 -96 70 -41 30 -81 60 -90
65 -8 6 -46 31 -84 56 -38 25 -82 54 -99 63 -16 9 -46 26 -65 38 -52 31 -247
129 -310 157 -30 13 -73 32 -95 42 -76 34 -254 97 -380 133 -33 10 -71 22 -85
26 -14 5 -38 11 -55 14 -16 2 -68 14 -114 26 -193 49 -468 78 -781 83 -140 3
-280 0 -310 -5z"/>
<path d="M4217 4863 c-4 -3 -7 -136 -7 -295 l0 -288 -332 -2 -333 -3 0 -118
c0 -93 3 -120 15 -127 8 -5 154 -9 324 -10 233 0 312 -3 318 -13 4 -6 8 -135
8 -285 l0 -272 28 -11 c42 -16 250 -8 263 11 6 10 7 102 4 252 -4 163 -3 249
5 279 l12 42 312 -6 c172 -3 318 -2 325 3 16 9 23 203 9 233 -8 16 -34 17
-322 17 -293 0 -314 1 -330 19 -15 16 -16 48 -15 289 1 148 -2 275 -5 281 -8
12 -268 16 -279 4z"/>
<path d="M5835 4160 c3 -5 8 -10 11 -10 2 0 4 5 4 10 0 6 -5 10 -11 10 -5 0
-7 -4 -4 -10z"/>
<path d="M11658 2239 c-6 -4 -9 -25 -6 -48 3 -37 1 -41 -24 -46 -15 -4 -39
-15 -53 -26 -21 -17 -25 -29 -25 -70 l0 -49 -41 0 c-39 0 -69 -17 -69 -39 0
-6 -18 -11 -40 -11 -29 0 -40 -4 -40 -15 0 -11 -11 -15 -40 -15 -40 0 -40 0
-40 -39 l0 -38 -61 -7 c-93 -9 -99 -8 -99 14 0 18 -7 20 -80 20 -64 0 -80 -3
-80 -15 0 -12 14 -15 70 -15 39 0 70 -3 70 -7 0 -12 -147 -153 -159 -153 -6 0
-11 18 -11 40 0 36 -2 40 -25 40 -20 0 -25 -5 -25 -25 0 -22 -4 -25 -40 -25
-24 0 -40 -5 -40 -12 0 -6 -18 -29 -40 -50 -22 -22 -40 -46 -40 -53 0 -8 -15
-29 -34 -47 -27 -26 -36 -44 -39 -78 l-4 -45 -1 48 -2 47 -40 0 c-22 0 -40 5
-40 10 0 6 -18 10 -40 10 -22 0 -40 -4 -40 -10 0 -5 -6 -10 -14 -10 -7 0 -16
-9 -19 -20 -3 -12 -14 -20 -26 -20 -18 0 -21 -6 -21 -39 0 -23 -6 -44 -15 -51
-9 -7 -14 -19 -11 -26 6 -17 -21 -22 -83 -16 -43 4 -51 2 -51 -12 0 -13 10
-16 53 -15 28 1 63 -2 77 -6 24 -8 24 -8 5 -16 -11 -4 -46 -8 -77 -8 -51 -1
-58 -3 -58 -21 0 -17 -7 -20 -40 -20 -36 0 -40 -2 -40 -25 0 -22 4 -25 40 -25
46 0 47 -3 20 -37 -11 -14 -20 -30 -20 -34 0 -5 9 -9 20 -9 14 0 20 -7 20 -21
0 -20 -4 -21 -50 -17 -45 5 -53 2 -69 -18 -12 -16 -29 -24 -48 -24 -17 0 -58
-3 -92 -6 l-62 -7 6 -73 c7 -71 6 -74 -14 -74 -12 0 -21 -6 -21 -15 0 -8 7
-15 15 -15 9 0 15 -9 15 -25 0 -20 -5 -25 -25 -25 -16 0 -25 6 -25 15 0 8 -7
15 -15 15 -8 0 -15 5 -15 10 0 6 -18 10 -40 10 -36 0 -40 -3 -40 -24 0 -22 5
-25 43 -29 l42 -4 -42 -1 c-42 -2 -43 -3 -43 -36 0 -19 5 -36 11 -38 9 -3 8
-14 -2 -41 -12 -34 -16 -37 -51 -37 -26 0 -38 -4 -38 -14 0 -17 -88 -28 -107
-13 -19 14 -16 27 7 27 17 0 20 7 20 40 0 22 -4 40 -10 40 -5 0 -19 9 -30 20
-32 32 -40 24 -40 -40 0 -48 -3 -60 -16 -60 -23 0 -12 -22 21 -40 38 -21 43
-40 12 -40 -18 0 -56 -31 -145 -120 -109 -109 -122 -120 -156 -120 l-36 0 0
65 c0 36 -4 65 -9 65 -5 0 -18 -11 -29 -25 -12 -15 -30 -25 -46 -25 -24 0 -26
-4 -26 -40 0 -36 -2 -40 -25 -40 -20 0 -25 -5 -25 -25 0 -22 -4 -25 -40 -25
-38 0 -40 -2 -40 -30 l0 -30 -80 0 c-79 0 -80 0 -80 -25 0 -16 -6 -25 -15 -25
-11 0 -15 11 -15 40 0 35 -3 40 -23 40 -17 0 -27 -10 -40 -40 -20 -46 -34 -50
-47 -15 -11 30 -31 32 -53 7 -21 -23 -21 -32 -2 -32 23 0 18 -16 -15 -43 -16
-14 -30 -28 -30 -31 0 -3 29 -6 65 -6 l65 0 0 40 c0 29 4 40 15 40 11 0 15
-11 15 -40 0 -29 4 -40 15 -40 11 0 15 -11 15 -40 l0 -40 59 0 60 0 4 43 4 42
1 -42 2 -43 1455 0 1455 0 0 1120 c0 969 -2 1120 -14 1120 -10 0 -16 -14 -19
-42 l-4 -43 -1 41 c-2 41 -3 42 -42 46 -23 2 -46 1 -52 -3z m12 -130 c11 -1
-36 -18 -52 -18 -11 -1 -18 6 -18 18 0 17 4 19 32 10 18 -5 35 -9 38 -10z
m-807 -516 c-13 -2 -33 -2 -45 0 -13 2 -3 4 22 4 25 0 35 -2 23 -4z m-387
-150 c-10 -10 -19 5 -10 18 6 11 8 11 12 0 2 -7 1 -15 -2 -18z m84 -33 c0 -36
-6 -37 -37 -8 -31 29 -29 38 7 38 27 0 30 -3 30 -30z m0 -170 c0 -17 -7 -20
-40 -20 -33 0 -40 3 -40 20 0 17 7 20 40 20 33 0 40 -3 40 -20z m28 -92 c18
-18 15 -28 -8 -28 -13 0 -20 7 -20 20 0 23 10 26 28 8z m-257 -88 c5 0 9 -4 9
-10 0 -5 -7 -10 -15 -10 -11 0 -15 11 -13 43 1 36 2 38 5 10 2 -18 8 -33 14
-33z m76 -12 c-3 -8 -6 -5 -6 6 -1 11 2 17 5 13 3 -3 4 -12 1 -19z m-387 -178
c0 -5 -4 -10 -10 -10 -5 0 -10 5 -10 10 0 6 5 10 10 10 6 0 10 -4 10 -10z
m-660 -560 c0 -5 -4 -10 -10 -10 -5 0 -10 5 -10 10 0 6 5 10 10 10 6 0 10 -4
10 -10z m180 -30 c0 -5 -4 -10 -10 -10 -5 0 -10 5 -10 10 0 6 5 10 10 10 6 0
10 -4 10 -10z m-240 -30 c0 -5 -4 -10 -10 -10 -5 0 -10 5 -10 10 0 6 5 10 10
10 6 0 10 -4 10 -10z m-263 -72 c-2 -13 -4 -3 -4 22 0 25 2 35 4 23 2 -13 2
-33 0 -45z"/>
<path d="M10720 1705 c0 -20 5 -25 25 -25 30 0 32 11 7 33 -25 23 -32 21 -32
-8z"/>
<path d="M9890 1080 l0 -40 55 0 c42 0 55 3 55 15 0 11 -11 15 -40 15 -36 0
-40 3 -40 25 0 16 -6 25 -15 25 -11 0 -15 -11 -15 -40z"/>
<path d="M140 950 c0 -5 5 -10 10 -10 6 0 10 5 10 10 0 6 -4 10 -10 10 -5 0
-10 -4 -10 -10z"/>
<path d="M9662 908 c-16 -16 -15 -28 3 -28 8 0 15 9 15 20 0 23 -2 24 -18 8z"/>
<path d="M0 425 l0 -425 275 0 275 0 0 28 c0 15 3 44 6 65 l7 37 -41 0 c-61 0
-72 17 -72 111 0 78 0 79 -25 79 -22 0 -25 4 -25 40 l0 40 40 0 c29 0 40 4 40
15 0 11 -11 15 -40 15 -22 0 -40 5 -40 10 0 6 -18 10 -40 10 -29 0 -40 -4 -40
-15 0 -20 -10 -19 -35 5 -19 17 -21 29 -17 71 l5 50 -44 -6 c-24 -4 -54 -8
-66 -11 -13 -2 -23 0 -23 6 0 5 11 10 25 10 22 0 25 4 25 39 0 22 6 42 13 44
8 4 3 14 -15 31 -21 18 -28 35 -28 61 0 34 -1 35 -39 35 -36 0 -40 -3 -44 -27
-3 -20 -4 -15 -6 15 l-1 42 45 0 c33 0 45 4 45 15 0 11 -11 15 -40 15 -22 0
-40 5 -40 10 0 6 -18 10 -40 10 l-40 0 0 -425z"/>
<path d="M9280 440 c0 -36 3 -40 25 -40 23 0 25 4 25 40 0 36 -2 40 -25 40
-22 0 -25 -4 -25 -40z"/>
<path d="M560 175 c0 -11 11 -15 40 -15 29 0 40 4 40 15 0 11 -11 15 -40 15
-29 0 -40 -4 -40 -15z"/>
<path d="M8560 60 c0 -6 -33 -10 -80 -10 -79 0 -80 0 -80 -25 l0 -25 160 0
160 0 0 35 0 35 -80 0 c-47 0 -80 -4 -80 -10z"/>
</g>
</svg>
